<?xml version="1.0" standalone="no"?>
<!DOCTYPE svg PUBLIC "-//W3C//DTD SVG 20010904//EN"
 "http://www.w3.org/TR/2001/REC-SVG-20010904/DTD/svg10.dtd">
<svg version="1.0" xmlns="http://www.w3.org/2000/svg"
 width="1500.000000pt" height="1500.000000pt" viewBox="0 0 1500.000000 1500.000000"
 preserveAspectRatio="xMidYMid meet">
<metadata>
Created by potrace 1.14, written by Peter Selinger 2001-2017
</metadata>
<g transform="translate(0.000000,1500.000000) scale(0.100000,-0.100000)"
fill="#000000" stroke="none">
<path d="M3334 10881 c-17 -10 -36 -32 -42 -47 -9 -22 -12 -322 -10 -1219 l3
-1190 543 -3 542 -2 0 1206 0 1206 -34 34 -34 34 -469 0 c-440 0 -470 -1 -499
-19z"/>
<path d="M9310 10889 c-383 -7 -511 -20 -668 -65 -261 -76 -406 -167 -627
-395 -282 -291 -485 -645 -668 -1160 -90 -252 -119 -361 -107 -393 15 -41 69
-59 157 -54 104 7 134 30 214 162 90 149 234 331 369 467 186 189 330 270 580
326 69 16 285 17 2765 22 2683 6 2690 6 2725 26 19 12 43 36 54 54 19 33 20
54 19 482 -1 356 -4 453 -15 475 -30 63 139 59 -2258 59 -1202 0 -2345 -3
-2540 -6z"/>
<path d="M9312 9023 c-84 -715 -102 -841 -168 -1133 -177 -782 -484 -1450
-966 -2098 -186 -250 -306 -459 -358 -627 -34 -107 -38 -267 -12 -373 65 -257
257 -443 539 -524 103 -30 323 -33 423 -5 163 44 346 162 455 294 213 257 353
701 504 1598 138 820 224 1640 295 2810 14 226 27 434 29 463 l4 52 -346 0
-346 0 -53 -457z"/>
<path d="M11465 9458 c-3 -13 -25 -252 -50 -533 -25 -280 -61 -681 -80 -890
-106 -1147 -141 -1568 -167 -2035 -29 -509 61 -924 265 -1225 102 -150 290
-308 459 -388 281 -132 673 -179 976 -117 389 79 701 324 926 725 136 244 226
524 307 959 26 144 29 175 20 208 -15 50 -52 69 -139 70 -110 2 -151 -30 -178
-139 -50 -197 -122 -361 -196 -449 -141 -166 -304 -235 -553 -235 -219 0 -364
51 -486 171 -138 136 -199 319 -239 719 -28 288 -5 1036 60 1926 38 505 69
970 76 1113 l7 142 -501 0 -502 0 -5 -22z"/>
<path d="M979 7574 c-195 -295 -355 -540 -357 -545 -2 -5 568 -9 1327 -9
l1331 0 0 -1350 c0 -1179 2 -1355 15 -1380 32 -62 14 -60 528 -60 488 0 494 1
529 44 16 20 18 108 18 1384 l0 1362 978 0 977 0 350 531 c193 292 354 537
358 545 7 12 -387 14 -2846 14 l-2853 0 -355 -536z"/>
<path d="M5950 3175 c-21 -25 -15 -87 10 -107 18 -15 42 -18 136 -18 l114 0 0
-428 c0 -403 1 -430 18 -445 27 -24 97 -22 122 3 19 19 20 33 20 445 l0 425
115 0 c102 0 117 2 135 20 22 22 26 70 10 101 -10 18 -25 19 -339 19 -277 0
-330 -2 -341 -15z"/>
<path d="M6772 3174 l-22 -15 0 -484 c0 -426 2 -485 16 -499 20 -20 93 -21
120 -2 18 14 19 32 22 445 l3 431 149 0 c199 0 190 8 190 -180 0 -136 -1 -142
-25 -165 -22 -23 -32 -25 -115 -25 -115 0 -130 -7 -130 -63 0 -71 3 -72 147
-72 141 0 178 12 235 72 42 45 48 73 48 249 0 216 -14 253 -115 300 -48 23
-60 24 -275 24 -188 0 -229 -3 -248 -16z"/>
<path d="M7530 3175 c-21 -25 -15 -87 10 -107 18 -15 42 -18 136 -18 l114 0 0
-428 c0 -403 1 -430 18 -445 27 -24 97 -22 122 3 19 19 20 33 20 445 l0 425
115 0 c102 0 117 2 135 20 22 22 26 70 10 101 -10 18 -25 19 -339 19 -277 0
-330 -2 -341 -15z"/>
<path d="M8352 3174 l-22 -15 0 -484 c0 -426 2 -485 16 -499 20 -20 93 -21
120 -2 18 14 19 32 22 445 l3 431 149 0 c199 0 190 8 190 -180 0 -136 -1 -142
-25 -165 -22 -23 -32 -25 -115 -25 -115 0 -130 -7 -130 -63 0 -71 3 -72 147
-72 141 0 178 12 235 72 42 45 48 73 48 249 0 216 -14 253 -115 300 -48 23
-60 24 -275 24 -188 0 -229 -3 -248 -16z"/>
</g>
</svg>
