<svg width="1500" height="1500" viewBox="0 0 1500 1500" fill="none" xmlns="http://www.w3.org/2000/svg">
<path d="M936.888 552.034H1005.16C998.13 677.768 989.176 803.322 964.765 927.237C958.625 958.404 951.268 989.32 938.234 1018.34C914.015 1072.3 857.376 1091.44 811.077 1062.17C781.803 1043.66 771.472 1009.41 785.12 975.948C792.968 956.705 804.214 939.332 816.735 922.984C879.796 840.602 914.216 747.171 925.994 644.741C929.541 613.835 933.3 582.94 936.888 552.034Z" fill="black"/>
<path d="M1411.29 895.617C1403.12 942.8 1392.11 989.219 1360.73 1027.23C1324.24 1071.47 1275.47 1082.62 1221.74 1071.53C1168.02 1060.44 1135.32 1026.29 1122.25 972.55C1112.2 930.957 1118.03 889.424 1120.76 847.991C1124.44 792.222 1130.37 736.584 1135.37 680.895C1139.22 637.935 1142.78 594.944 1147.06 552.034H1246.94C1242.2 650.492 1230.39 748.598 1231.38 847.368C1231.69 866.379 1233.76 885.321 1237.56 903.952C1244.33 938.437 1264.15 956.785 1296.94 959.56C1333.66 962.677 1360.44 947.324 1373.05 915.423C1376.35 907.071 1378.98 898.467 1380.91 889.695C1383.66 877.007 1392.46 876.002 1402.65 877.349C1414.72 878.937 1412.61 887.946 1411.29 895.617Z" fill="black"/>
<path d="M875.625 519.861C864.216 520.362 852.915 522.298 841.989 525.622C824.905 531.051 811.439 540.552 799.661 552.034C790.616 560.841 782.576 570.825 774.617 581.009C768.457 588.912 762.558 597.196 757.965 606.064C752.237 617.193 743.192 618.46 732.59 617.304C725.164 616.5 722.38 612.448 724.551 605.239C730.098 587.142 736.077 569.307 743.042 552.024C747.474 541.045 752.297 530.287 757.664 519.851C772.738 490.614 791.983 463.811 818.614 441.27C844.542 419.322 876.992 412.656 908.96 411.862C988.783 409.851 1068.75 411.209 1148.58 411.209C1148.58 411.088 1310.46 410.806 1391.4 410.877C1410.72 410.877 1411.96 412.174 1412.06 431.638C1412.18 454.36 1411.6 477.082 1412.25 499.784C1412.66 514.04 1407.11 519.67 1392.71 519.489L1259.71 519.851C1259.71 519.851 889.544 519.037 875.625 519.861Z" fill="black"/>
<path d="M437.063 421.212V657.098H328.528V421.212C328.528 419.772 328.812 418.347 329.364 417.017C329.916 415.687 330.726 414.479 331.745 413.463C332.765 412.447 333.975 411.642 335.306 411.095C336.637 410.547 338.063 410.268 339.502 410.274H426.17C429.062 410.284 431.833 411.441 433.875 413.492C435.917 415.542 437.063 418.318 437.063 421.212V421.212Z" fill="black"/>
<path d="M703.658 689.27L631.864 797.853H437.064V1065.91C437.064 1068.8 435.917 1071.58 433.875 1073.63C431.833 1075.68 429.063 1076.84 426.17 1076.85H339.503C338.063 1076.85 336.637 1076.58 335.306 1076.03C333.975 1075.48 332.765 1074.68 331.745 1073.66C330.726 1072.64 329.917 1071.44 329.365 1070.11C328.813 1068.78 328.528 1067.35 328.528 1065.91V797.853H62.0146L64.4566 794.153L133.798 689.27H703.658Z" fill="black"/>
<path d="M636.416 1277.73C636.416 1281.83 633.856 1283.87 628.736 1283.87C623.701 1283.87 621.184 1281.83 621.184 1277.73V1194.15H598.784C595.712 1194.15 594.091 1191.97 593.92 1187.62C593.92 1183.35 595.541 1181.22 598.784 1181.22H658.816C662.059 1181.22 663.595 1183.35 663.424 1187.62C663.424 1191.97 661.888 1194.15 658.816 1194.15H636.416V1277.73ZM702.641 1245.22C701.19 1245.22 700.038 1244.66 699.185 1243.55C698.417 1242.36 698.033 1240.78 698.033 1238.82C698.033 1234.47 699.825 1232.29 703.409 1232.29H716.977C720.134 1232.29 722.353 1231.39 723.633 1229.6C724.998 1227.81 725.681 1225.85 725.681 1223.71V1202.72C725.681 1200.59 724.998 1198.63 723.633 1196.83C722.353 1195.04 720.134 1194.15 716.977 1194.15H690.097V1277.73C690.097 1281.83 687.537 1283.87 682.417 1283.87C677.468 1283.87 674.993 1281.83 674.993 1277.73V1188.9C674.993 1185.83 675.761 1183.78 677.297 1182.75C678.833 1181.73 680.71 1181.22 682.929 1181.22H720.305C722.438 1181.22 724.7 1181.69 727.089 1182.63C729.478 1183.56 731.782 1184.76 734.001 1186.21H733.873C736.092 1187.83 737.798 1189.96 738.993 1192.61C740.188 1195.17 740.785 1198.16 740.785 1201.57V1224.74C740.785 1231.65 738.481 1236.81 733.873 1240.23C731.654 1241.85 729.393 1243.08 727.089 1243.94C724.785 1244.79 722.524 1245.22 720.305 1245.22H702.641ZM794.416 1277.73C794.416 1281.83 791.856 1283.87 786.736 1283.87C781.701 1283.87 779.184 1281.83 779.184 1277.73V1194.15H756.784C753.712 1194.15 752.091 1191.97 751.92 1187.62C751.92 1183.35 753.541 1181.22 756.784 1181.22H816.816C820.059 1181.22 821.595 1183.35 821.424 1187.62C821.424 1191.97 819.888 1194.15 816.816 1194.15H794.416V1277.73ZM860.641 1245.22C859.19 1245.22 858.038 1244.66 857.185 1243.55C856.417 1242.36 856.033 1240.78 856.033 1238.82C856.033 1234.47 857.825 1232.29 861.409 1232.29H874.977C878.134 1232.29 880.353 1231.39 881.633 1229.6C882.998 1227.81 883.681 1225.85 883.681 1223.71V1202.72C883.681 1200.59 882.998 1198.63 881.633 1196.83C880.353 1195.04 878.134 1194.15 874.977 1194.15H848.097V1277.73C848.097 1281.83 845.537 1283.87 840.417 1283.87C835.468 1283.87 832.993 1281.83 832.993 1277.73V1188.9C832.993 1185.83 833.761 1183.78 835.297 1182.75C836.833 1181.73 838.71 1181.22 840.929 1181.22H878.305C880.438 1181.22 882.7 1181.69 885.089 1182.63C887.478 1183.56 889.782 1184.76 892.001 1186.21H891.873C894.092 1187.83 895.798 1189.96 896.993 1192.61C898.188 1195.17 898.785 1198.16 898.785 1201.57V1224.74C898.785 1231.65 896.481 1236.81 891.873 1240.23C889.654 1241.85 887.393 1243.08 885.089 1243.94C882.785 1244.79 880.524 1245.22 878.305 1245.22H860.641Z" fill="black"/>
</svg>
