<svg xmlns="http://www.w3.org/2000/svg" width="1000" height="1000" fill="none">
  <path fill="#1A69B0" d="M436 955a18 18 0 0 1-3-14c0-6 3-12 8-16 6-3 12-5 19-4l10 2c4 1 7 3 9 5l3-4h4l-2 26h-4l-3-9c0-3-2-5-4-8-1-2-3-4-6-5-2-2-5-2-8-3l-7 1-4 2-3 4-1 5c-1 3 0 6 1 9l7 7a7149 7149 0 0 0 16 7c4 2 7 5 9 9 2 3 3 7 2 12l-2 8a21 21 0 0 1-14 10l-9 1-9-3-7-4-3 3h-4l2-25h4l2 9 3 7 6 6 8 2c3 0 6 0 8-2 3-2 5-5 5-8s0-6-2-8c-1-3-3-5-6-6l-7-4a91 91 0 0 1-13-7l-5-5m-38-43 33 7-1 4-4-1h-4l-3 1-1 3-11 54v3l2 3 4 2 4 2-1 3-34-7 1-3h8c2 0 3-1 3-2l2-3 11-53v-4l-3-2-3-2-4-1 1-4m-84 4a176 176 0 0 0 7 1l3-1 2-3 2-6 2-8 1-4a78 78 0 0 1 29 3 37 37 0 0 1 21 19l4 14-3 17c-2 5-4 10-8 14a38 38 0 0 1-26 13c-5 1-10 0-15-2a36 36 0 0 1-17-11l-3 2-4-1 8-25 4 1v9l1 9 5 7c2 2 4 4 8 5a22 22 0 0 0 20-3c3-2 6-5 8-9a57 57 0 0 0 10-27l-2-12c-1-4-2-7-5-10l-10-6-8-1-7 1-2 5-1 4-2 4-1 4 2 4 4 2 4 2-1 4-31-11 1-4m-20-45 31 16-2 3-4-2-3-1-4 1-2 2-25 50-1 3 2 3 3 3 3 2-1 3-31-15 2-3 3 1 4 1 4-1 2-2 25-49v-3l-1-4a33 33 0 0 0-6-4l1-4Zm-69-18 14-17 49 33-2 3-3-2-3-1h-3l-3 2-30 46-1 3 1 3 2 3 2 3-2 3-26-18 2-3a28 28 0 0 0 7 3l3-1 2-2 29-43 2-4 1-4-3-3a56 56 0 0 0-9-6l-3-2-4-1h-2l-9 3-8 5-3-3m-50-46 16-15 44 40-3 3-3-3-3-1h-3l-3 2-36 40-2 3v3l2 3 2 3-2 3-24-22 2-2 4 2 3 1 3 1 3-2 34-38 4-4 1-4-2-3-5-5-3-3a31 31 0 0 0-7-4h-2l-9 2-9 3-2-3m-33 27a3187 3187 0 0 1 35-61l-3-3a5528 5528 0 0 1-74 22l-3-2-2-1-2-4v-4l2-4 4-4 34-19 9-5h5l4 3 3 4 3-2-15-27-3 2 1 5 1 5-3 5-9 6-39 23v-1l45-55-2-2-69 10v-1l48-27 3-1 3 1 3 3 3 4 3-2-17-29-3 1a28 28 0 0 1 2 8v3l-3 2-47 27-3 1c-2 1-3 0-4-1a31 31 0 0 1-4-5l-4 2 13 21 4-1 5-1 51-8-39 47 13 21 18 22 3-2a791 791 0 0 1-4-10l1-2 2-2 7-2a1072 1072 0 0 1 43-15l-18 32-9 16-1 1-1 1-3-1-5-5-3 3 20 24 3-3-2-2-1-4v-3l1-4ZM30 608c4-1 8-2 11-1s7 2 9 4l7 7 4 10 3 8 22-6 3-2 1-3v-3l-1-5 4-1 9 31-4 2a103 103 0 0 0-3-7l-3-2-3 1-53 15-3 2-1 3v4l1 3-4 1-10-33c-2-7-2-13 0-18s6-9 11-10m17 12-5-1a26 26 0 0 0-11 3l-5 4-2 6 1 8 2 7 32-10-1-5-5-8c-2-2-4-4-6-4m37-42-4 1v7l-3 4h-3a43 43 0 0 1-9-1l-7-1-4-26 16-9 1-1h1c1 0 2 0 3 2l2 7 4-1-5-29 1-27h-4l-1 5-3 5c-1 1-2 2-5 2l-10 1H15l63-46v-4l-56-1-9-1c-3 0-5-1-6-3l-1-4-1-5H1v31h4a31 31 0 0 1 3-10c1-1 2-2 5-2l10-1 36 1-59 41v22h4l1-5 3-5 4-2 5-1h38l10 1 5 3 1 4 1 3-1 3a12 12 0 0 1-5 6L5 577l1 5a23293 23293 0 0 1 72 16l3 3c1 0 2 1 2 3l1 3 4-1-4-28Zm-61 2 27-16 3 23-30-7m1-199 13-5h17l16 6a36 36 0 0 1 10 52c-2 4-6 7-10 9-4 3-8 5-14 5H40c-6-1-11-3-15-6a34 34 0 0 1-16-23 36 36 0 0 1 15-38m51 19-10-7a64 64 0 0 0-28-5l-12 2c-3 2-6 3-8 6s-4 6-4 10c-1 4-1 8 1 11l6 9 10 6a68 68 0 0 0 27 5c4 0 8-1 11-3 4-1 7-3 9-5l5-10a20 20 0 0 0-7-19m88-165a25 25 0 0 1-6 5l-3 1-3-1-46-29-3-3v-3l1-3 2-4-4-2-13 21 3 3 4 4 30 42-60-12-13 22 3 2 3-4 4-2h4l5 2 33 21 9 6 2 4-1 5-2 5v1a21 21 0 0 1-10 5 963 963 0 0 1-30 8v-8l-2-7c0-2-2-4-4-5-1-2-4-3-6-4-3-2-6-2-9-1l-7 2-6 6-4 9-12 32 3 2a25 25 0 0 1 4-6c1-2 2-2 3-2l3 1 52 19 2 2 2 3-1 4-1 3 4 2 11-30-3-2a28 28 0 0 1-4 7l-3 1h-3l-23-9 3-7a386 386 0 0 1 41-10l7-20 13-20-3-3a27 27 0 0 1-8 7l-6-1-9-4-38-24v-1l70 14 1-2-41-56v-1l47 29 3 3v3l-1 4-2 4 3 2 18-28-3-2ZM66 340l-2 6-31-11 4-9c1-4 4-7 7-9h12c5 2 9 5 10 10 2 4 2 8 0 13m126-130-22 25-3-2a147 147 0 0 1 4-7l1-3-2-3-42-36-3-2-3 1a33 33 0 0 0-7 5l-3-3 23-25 3 2a38 38 0 0 0-4 7l-1 3 2 3 42 36 3 2 3-1a28 28 0 0 0 6-5l3 3m11-86-2 2-5-2-5-2-6-1-4 1a73 73 0 0 0-7 6l-2 2 41 45 3 2h3l4-2 4-3 2 3-26 24-3-3 3-3 3-4v-3l-1-3-41-46-3 2-3 3-3 4-1 4a28 28 0 0 0 1 11l2 4-3 3-14-15 50-45 13 16m151-21-23-51-3-9v-5l3-4 4-2-1-4-29 13 2 3a29 29 0 0 1 10-1c2 0 3 1 5 3l5 9 14 33-62-35-20 9 1 3 6-1 6 1 3 2 3 4 16 35 3 10v5l-3 3a95 95 0 0 1-3 2l-3 1-4-1-3-2-58-40-4 2a62556 62556 0 0 0 16 72l-1 5-2 3-3 2 2 3 24-16-2-3c-2 2-5 3-7 3-2 1-4 1-5-1l-1-2-1-3-2-6-1-6 22-15 15 10 1 1v1c1 1 0 2-1 3l-5 5 2 3 24-16 26-11-2-4a29 29 0 0 1-11 1l-4-3-5-9-16-36 68 38 4-2Zm-119 29-7-31 26 18-19 13m223-78 3 22-61 13-1-4a122 122 0 0 0 8-2l2-3v-3l-5-22-25 6a249 249 0 0 0-6 19v6l3 3h6l1 4-27 5-1-3a17 17 0 0 0 6-4l3-3 2-5a2962 2962 0 0 0 21-64l-5 1h-5v-4l65-13 3 18-4 1-6-8c-3-2-5-4-8-3h-4l-5 1-11 2 6 30 8-2 6-2 3-3 1-4v-5l4-1 6 29-4 1-2-5-3-4-4-2-6 1-8 1 5 23 1 5 3 2 4 1 7-1 4-1a40 40 0 0 0 9-3l2-2 4-9 1-8 4-1Zm-55-3-7-34-4 1-11 38 22-5m132-8 4 6 1 8c-1 7-3 12-8 16s-12 6-19 6c-3 0-7 0-10-2l-9-4-2 4h-4V51h4l3 9 4 7 7 6 8 2 7-1 4-3 3-4 1-5-2-9-8-6a241 241 0 0 0-15-7c-5-2-8-4-10-8-3-3-4-7-3-12l1-8a22 22 0 0 1 13-11l9-1 9 2 8 4 2-4h4v26h-4l-3-9c0-3-2-5-3-7-2-2-3-4-6-5-2-2-5-2-8-2l-9 3c-2 2-3 4-3 8 0 3 0 6 2 8 1 2 3 4 6 5l8 4a112 112 0 0 1 13 6l5 4m78-9h-3l-1-5a40 40 0 0 0-5-10l-3-3-4-1-5-1h-3l-10 60v3l2 3a37 37 0 0 0 9 3l-1 4-35-6v-4a172 172 0 0 0 9 0l3-2 1-3 11-60-3-1h-4l-5-1-4 2-4 3a39 39 0 0 0-6 9l-4-1 3-20 66 11-4 20m128 38a42 42 0 0 0-19-18l-30-15-24-9-1 4a51 51 0 0 1 6 3l3 3v2l-1 3-4 6a780 780 0 0 1-29 34l-2-36V31a13 13 0 0 1 0-3l3-1 7 1 1-3-30-10-1 3 3 2 3 2 2 3v4l1 27 2 43 4 2a4524 4524 0 0 1 52-58 12 12 0 0 1 5 0l1 1 3 3 1 3-1 3-24 49-2 3h-3l-4-1-3-1-2 3 28 14c5 3 10 4 15 5h14c5-1 10-3 14-6 5-3 8-8 11-13 3-7 5-13 5-18 0-6-1-11-4-16m-8 14c-1 5-2 9-5 14l-7 11c-3 3-6 6-9 7-3 2-7 3-11 3l-11-4c-4-1-6-3-7-5v-8l26-52a92 92 0 0 1 9 4c4 2 7 5 9 8 3 3 4 6 5 10l1 12m15 71-28-19 2-3 3 2 4 2h3l3-3 30-46 1-2-1-4-3-3-3-3 3-3 28 19-2 3-4-2-3-1h-4l-2 2-31 46-1 3 1 3a33 33 0 0 0 6 6l-2 3Zm94-8c1 5 0 10-2 15a47 47 0 0 1-22 24 37 37 0 0 1-28 3 37 37 0 0 1-25-33l3-15 8-13c4-5 9-8 13-11 5-2 10-4 15-4a35 35 0 0 1 26 9 36 36 0 0 1 12 25m-41 35 10-5 11-10 8-12 4-11-1-10-6-9c-3-3-7-4-10-5l-11 1c-3 2-7 3-10 6a67 67 0 0 0-18 21l-4 11c-1 3 0 7 1 10l6 9a20 20 0 0 0 20 4m54 83-13-16a519 519 0 0 0 12-41l-5-6-19 15-2 3v3l1 3 3 4-3 2-20-25 2-2a80 80 0 0 0 6 4l3 1 3-2 43-34 2-3v-3l-1-3-2-3 3-3 22 28 5 7 2 8-1 8-5 7-7 3-7 1-7-2-7-4-4 15-4 15-1 6 1 5 1 3 2 3-3 3Zm26-58c4-3 6-6 6-10 1-4 0-7-4-11l-5-7-26 20 5 6c3 4 7 6 11 6 5 1 9-1 13-4m91 128-3 1h-6l-51 1 45-42-9-20-15-25-3 2 2 4 1 3v4l-1 2-3 1-7 2a1358 1358 0 0 1-44 7l22-28 12-14 1-1 1-1c1-1 2 0 3 1l4 5 3-2-16-27-3 2 1 3 1 4-1 4-2 3a2565 2565 0 0 1-43 55l2 3a5164 5164 0 0 1 77-10l3 2 2 2v1l-1 5-2 3-5 3-36 14-10 4-5-1-4-3-2-5-4 2 12 28 3-1a27 27 0 0 1 0-10c0-2 1-3 3-4l9-5 42-17 1 1-53 47 1 3h70v1l-51 20-3 1-4-2-2-3-2-4-3 1 12 31 3-1a22 22 0 0 1-1-7l1-4 3-1 51-20 3-1 3 1 2 3 2 4 4-2-10-23m28 135-3-26h-4a82 82 0 0 1-1 8l-1 3-1 1h-4l-6-1a711 711 0 0 1-44-11l32-17 16-8 1-1h1c1 0 2 0 3 2l1 7 4-1-4-31-4 1v3a13 13 0 0 1-3 6l-2 3-25 13-38 20 1 4a4773 4773 0 0 1 75 21l1 3 1 3-1 4-3 5-4 2-5 1-37-1-11-1-4-3-2-4-1-5h-4l-1 31h4a33 33 0 0 1 4-10c1-1 2-2 5-2l10-1 39 1-63 44v5l55 1 10 1 5 3 2 5v4h4l1-31h-4a30 30 0 0 1-3 10l-5 3h-10l-36-1 59-41v-22m-85 114 6-34 3 1v8l2 2c0 1 1 2 3 2l54 9 3-1 3-2a26 26 0 0 0 3-8l4 1-6 34-3-1a38 38 0 0 0 0-8l-2-3-3-1-54-9h-4l-2 3-2 3-1 4h-4m50 92v-7l-2-4-4-3-22-18-32-25 1-4 43-3a3309 3309 0 0 0 34-5l2-3 1-3 4 1-9 31-3-1 1-7-1-3-2-1h-1l-18 2-36 2a2264 2264 0 0 0 44 33h2l2-3 2-3 2-3 3 1-8 27-3-1m-75 42-20-11 27-57 3 1-1 5-1 3 1 3 3 2 49 23 3 1 3-1 3-3 2-3 4 1-25 53-17-7 2-4 10-1c3 0 6-2 7-4a52 52 0 0 0 4-8l5-11-27-12-4 7-1 6 1 4 2 4 4 3-1 4-27-13 1-4a22 22 0 0 0 10 2l4-3 3-5 4-7-21-10-5-2-3 1-3 3-3 6-2 4a43 43 0 0 0-3 8v4l5 8 5 6-1 4m-63 53 11-17a521 521 0 0 0 42 0l5-7-20-13-3-2-3 1-3 2-3 4-3-3 18-26 4 2-2 3-2 4 1 3 2 2 46 31 3 2 3-1a28 28 0 0 0 5-5l3 2-20 29-5 7-7 4c-3 1-5 2-8 1-3 0-5-1-8-3l-6-5-2-7v-7l2-7a982 982 0 0 1-38 2l-4 1-3 3-2 2-3-2Zm62 9 12 3c3-1 7-3 9-7l5-8-26-18-4 6c-3 4-4 8-3 12 0 5 3 9 7 12Zm-75 53-6-2-6-4c-5-5-8-10-7-17 0-6 3-12 8-18l8-6 9-4-1-4 3-3 19 18-3 3-8-4-9-2-8 1-8 5-3 6c-1 1-2 3-1 5l1 4 3 5a15 15 0 0 0 18 3 245 245 0 0 0 15-7c5-2 9-3 12-2 4 0 8 2 12 6a19 19 0 0 1 6 15l-2 8-5 8-8 5-8 3 1 4-3 3-18-17 3-3 8 4 7 2 8-1 7-4 4-9c0-3-1-6-4-8l-7-4-9 1-7 4a110 110 0 0 1-14 5l-7 1m-56 1 27-21 2 2a220 220 0 0 1-5 6l-1 3 1 4 36 42 2 2h4a29 29 0 0 0 7-4l2 3-26 22-2-3a39 39 0 0 0 5-6l1-4-2-3-35-42-3-2h-3a43 43 0 0 0-7 4l-3-3Zm31 48-3 2 1 4a34 34 0 0 1 0 12l-2 3-4 3-3 3-3 1-33-51-1-3 1-3 3-3 3-3-2-3-30 19-23 13 2 3 7-2 5 1 1 3v3a103 103 0 0 1 2 13l-24 11-13-12-1-1-1-1c0-1 0-2 2-3l6-4-2-4-28 14-32 9 1 4a32 32 0 0 1 9-1l3 1 2 3 19 57-3 1-4 2-4 1-5-1-4-3a45 45 0 0 1-8-8l-3 1 6 20 63-21-6-19-4 1v4a29 29 0 0 1-3 11l-3 4-4 1-4 2-3 1-19-58-1-4 2-3 6-1 3-1 4-1 4 1 3 3 51 48 4-2-3-34a3840 3840 0 0 1-2-40l1-5 3-4 5-2 4-1h3l3 3 33 51-3 1-4 3-3 2h-5l-5-2a43 43 0 0 1-9-5l-3 2 11 17 56-36-12-17Zm-99 30 20-10 3 31-23-21Z"/>
  <path fill="#1A69B0" d="M650 903c-1 0 2-1 0 0Zm-81 16 33-7 1 4a158 158 0 0 1-8 2l-2 3v3l11 54 1 3 4 1a27 27 0 0 0 8 1l1 3-34 7-1-3a36 36 0 0 0 8-3l2-3v-3l-11-54-1-3-3-2h-4l-4 1-1-4m-49 40-4-6-1-7c-1-7 1-12 5-17 5-5 11-8 18-8h11l9 3 2-4h4l3 26h-4l-4-8-6-7-7-4c-2-1-5-2-8-1l-7 1-4 3-2 5v5a15 15 0 0 0 11 14l8 2 8 2 11 7c3 3 4 7 5 12a19 19 0 0 1-6 15 23 23 0 0 1-15 8l-10-1-8-3-2 4h-4l-3-25h5l3 8 5 6c1 2 3 4 6 5l8 1c3 0 6-2 8-4 2-3 3-5 3-8 0-4-1-6-3-8l-7-5a98 98 0 0 0-16-5l-6-2-6-4m89-708c7 6 10-5 12-10-6-7-12 4-12 10Zm-279 62 2-3 1-1v-1l-6-2-2 1-1 1-1 3c1 2 4 3 7 2Zm-137 43c-2-11-7-18-9-28 2-3 13-14 3-14-6 0-15 11-14 19 1 9 9 26 20 23m135 2-4-3c-6-5-14-6-20-8l-4-2h-1l-3-1h-1c2 6 4 11 8 13 4 3 8 3 12 3h9c1 2 5 0 4-2m181 426c-13 0-11-17-12-31-7 0-10 9-12 16-1 5-4 12-4 17-2 18 9 26 25 24 17-2 45-18 32-38-15-5-17 12-29 12m-15-413h6c16 13 21 39 23 63-6-7-7-21-11-35-2-9-6-23-16-17 0 6-2 9-1 14s6 9 7 13c0 5-3 8-4 12-2 9 2 16 2 26 9 2 28-7 23 8-8-2-16-8-21 1 7 0 13 1 15 5 8-8 11 7 17 10 4 2 10 1 14 4l4 5c4 4 11 6 11 11-3 3-6-1-7-3-8-3-14-8-24-9 0 9-4 20 0 27h8v-18c5 1 2 7 3 11 1 3 4 5 6 7 4-1 0-8 3-11 3 0 3 3 3 5 3 2 6 5 7 9 3 3 8 4 8 10l-10-5c-10-3-24 1-24 7 0 8 23 12 30 13 6 1 11 1 15-3-3-14-12-22-10-38 1-6 5-11 5-16 0-12-11-20-10-34 2-6 11-3 18-5s7-9 13-10c8 2 14-3 19 0v4c-7 3-11 7-15 12-2 2-3 6-7 7 0-8 3-13 8-17-7 3-12 9-22 9-1 2 3 3 5 5-1 3-6 4-7 8 17 3 6 24 8 40 1 16 9 31 8 43l-5 12c7 1 15-2 16-7 3-17-11-38-8-55 7 9 7 29 10 43l3 16c0 11-9 14-21 13-26-2-53-18-73-26-7 4-13 11-24 9-8-1-10-10-21-8-12 3-27 12-43 12-3 1-2 6-4 8 7 1 9 7 15 10 3 2 9 2 15 4 9 3 16 8 26 11 5 1 12 2 15 4 4 5 2 16 9 17 1-4-2-6 0-11 0-3 3-5 2-8 0-3-4-7-7-8-7-1-12 5-18 3s-10-12-16-17c-8-7-18-8-30-10 4-4 10-1 15 0 4 1 10 2 14 5 5 4 9 12 14 15 9 5 33-1 34 11 1 6-5 9-6 14-1 6 4 12 3 19-2 5-7 8-8 14h-4c-1-14-3-24-10-32-9-12-33-12-51-18l-23-9c-11-4-25-6-20-20 5-17 22-28 34-38-4-4-1-17 2-18 4 1 1 8 2 12 3-1 6-7 6-13 7 1 2 11 5 15 12 1 3-14 7-19h4c0 5-1 17 4 18 2 0 6-5 7-8 1-6-2-15 3-18-15-2-23 10-36 7 1-12 16-12 29-14 3-2 3-8 7-10l8-2c5-2 10-8 14-8 3-1 6 3 10 0-5-8-14-1-20 1 0-19 4-34 10-46-8 6-13 21-26 25l-20 4c0-4 5-4 7-5 13-6 26-11 30-25-11 0-22 5-30 11-10 8-19 20-26 28-4 0-4-3-8-3-7 5 1 14 7 15 4-1 4-5 7-6 0 5-4 11-12 10-6-4-4-9-10-13-5-4-13-3-17-7l-2-5c-1-3-4-4-6-7v-4c6-3 9 3 13 5 22 8 35-4 46-15l18-20 17-11c6-5 10-13 17-15m-91 71c-1-3-6-7-9-4l9 4Zm77 36c9 15 9-14 20-9v-6c-13-2-7 17-20 15Zm24-1c-3 2-5 6-7 9-6 3-20-2-22 4 5 4 15 3 19 8 1 4 0 11 2 15l-4 1c-2-5-8-10-16-8-5 13 12 18 18 9 0 3 3 4 5 6-2 1-6 1-6 4 1 2 6 1 8 3-1 2-5 2-7 3l2 4c20-2 27-24 24-43-3 10-6 20-18 21-4-3-3-12-1-17 12-1 22-7 19-22-4 1-10 6-16 3m-90 74c3-4 8-8 16-9l10 1 10-4c8-2 16-4 16-10 0-8-11-9-17-5-13-6-21 3-29 11-7 7-18 17-9 25 5-2 3-5 3-9"/>
  <path fill="#1A69B0" d="M586 108h1c1 17-3 34-3 50v18c2 5 9 6 10 12 0 5-5 7-7 12-1 8 2 13 1 21 13 0 33 2 24 16-7 2-10-5-15-2 2 3 8 2 7 8-3 3-8 0-10-1 1 6 10 3 8 11-2 2-7 1-8-1-2 3 7 5 6 10-2 6-10 1-16 2-6 0-8 7-12 7 1 2 4 5 4 9 1 6-2 8-3 12-5 18 2 47-8 59 3 3 9 4 13 7 2-23-2-54 0-76 1-5 3-12 10-10 2 5 0 10-1 14-1 25 3 53 1 77 4 3 7 9 13 10 5 0 13-5 20-8 10-4 19-7 31-6 2-5 0-11 4-12 4 0 7 7 9 11 5 9 8 18 20 15v-11c4 2 6 7 7 11 3 22-2 58-15 62-15 5-22-12-21-28 3-1 5 1 6-1-4-6-3-14-9-18-9-7-24 1-36 0 25 31 43 72 40 127-3 52-28 85-57 111-3 2-12 8-13 11v66c28 2 51-5 72-11 1-6 3-14 6-20 2-5 5-13 12-12 2 2 0 8 0 11 12-3 14-16 31-14 6 9 21 10 31 14 2 1 3 4 6 3 1-13-8-18-18-23-6-2-14-4-14-9-1-7 10-13 19-11 6 1 7 8 12 7-1-10-4-18-11-18-9-1-18 8-25 13-5 4-18 16-25 14-6-1-7-13-5-20 2-8 12-16 14-23 2-13-7-27-12-37-6-11-11-23-12-38-1-27 8-37 17-55l7-2c5-7 8-20 9-29-3 5-3 11-8 16-5 7-20 8-27 4-7-3-7-17-4-25 5 3 8 9 13 12 13-8 24-24 25-44 2-23-6-46-10-65-11-1-16-5-25-5-16 0-27 15-39 4 3-3 6-1 10 0 11-12 40-10 57-10 1-2 3-3 3-5-13-4-17-18-20-32-10 1-20 0-24-6 3-7 9-8 13-15 4-8 1-17 5-26 2-7 12-19 20-19 7 1 13 12 16 18 4 8 7 16 9 26 7 0 16 0 22 2-7-21-13-44-36-47-5 0-12 2-17 0-7-3-7-15-7-22 32 0 54 21 65 42 5 9 6 17 9 28 1 4 6 10-2 11 3 5 2 12-2 16l15 11c3 1 8 2 9 4 2 8-11 9-18 11-1 1 3 2 2 5-1 4-6 4-8 8 3 4 7 8 7 14l-9-3c-3-5-4-11-8-17l-5-7c-2-9 1-21 1-31l-1-7c1-3 5-4 5-7-5-4-13-1-14 5 0 4 3 8 0 10-13 2-8-15-16-19-11 1-18 6-24 12 2 2 7 1 9 3 1 5-6 7-3 10 3 1 9-2 11 1-3 4-10 1-10 6-1 3 5 8 11 7 3 0 5-3 8-2 11 1 3 20 5 31-5 0-9 2-12 6 3 17 2 37 14 45 11 7 24-1 36-4 2 6 2 11 0 15s-10 12-14 14c-3 2-5 1-7 3-3 2-5 7-7 11-4 8-10 15-8 27 4 5 10 8 14 12 4 1 9 1 11 4 0 7-4 13-4 19 0 7 5 16 8 21 1 1 2 5 4 4 4-37 14-67 26-95-5-5-15-4-19-10 2-7 9-11 14-16 5-6 9-15 20-14 0 5 0 10 2 13 12-10 22-26 42-28 42-4 52 34 63 64v1c-10-22-19-46-48-51 10 104-8 203-39 274 28 2 43-12 54-28 4-5 6-10 11-14-14 21-30 59-70 55-7-1-14-5-19-8-1-1-3-3-4-2-2 8-9 12-14 21s-7 22-17 20c-8-1-6-14-12-18-4 6-1 14-2 21-1 10-6 18-6 26 2-2 10-2 13-1-6 11-19 17-32 21-15 5-30 5-47 6-18 1-29 10-34 24s-2 32-9 45c-9-78 56-93 97-126-15-2-17-11-32-10-17 1-35 18-42 36-2 7-2 15-5 20-4 5-11 8-14 12-6 7-7 20-17 21-4-2-3-7-4-9-5 3-9 6-10 13 2 4 14 2 15 8 1 3-5 6-5 11-1 10 11 19 8 28 0 4-6 4-7 6 2 6 4 10 10 13s15 1 13 9h-8c-5-1-9-1-12-3-3-5-7-8-9-13-3-6-4-14-8-20l-5-7-5-6c-4-6-14-10-11-19 1-4 8-6 11-9 4-2 7-7 12-11l12-9c7-8 6-21 10-30 3-5 8-5 10-11-12-10-28 0-44-2l-30-3c-7-1-13-7-21-7-25-3-43 15-54 30 16-8 24-21 48-22 11 0 19 2 31 4 6 2 27 3 26 9-1 5-16 4-22 4l-24-2c-31 0-58 16-62 44-2 9-1 17-7 17-8 1-15-19-15-29-2-19 8-30 19-40l27-21c23-16 49-8 79-3 2-18 1-39 1-59-20 9-40 17-67 19-65 3-111-25-138-65-26-37-43-108-17-161-9-8-17-18-30-21-5 4-11 7-15 13l-4 11-10 15c-2 6-4 12-8 17-3-21 8-32 13-46-12 1-26 0-34 6-5 12 4 23 4 34l-2 14 3 15c0 7-5 13-2 21 6 2 9-5 15-5 10 1 12 19 18 26 4 7 14 12 21 18 7 5 13 12 19 18 12 14 26 27 29 47v11l-8 9v12c-1 20-6 42-4 64 0 8 4 16 0 23-4-8-4-18-5-28v-30c1-21 5-44 2-62-2-14-18-20-28-27-1-1-2-3-3-2-1 12-3 20 2 27 4 6 12 6 13 13 1 3-2 8-1 11 0 5 8 7 8 13 1 11-9 14-15 19-12 10-23 38-8 52 3-2 1-11 7-12 9-1 8 25 10 32 0 3 2 5 4 8l1 5 7 20c2 5 6 11 1 15-5 1-6-4-9-3-2 5-3 14 2 15 7 1 15-12 28-7 2 1 7 5 7 11 0 5-4 5-5 10 4 3 11 5 11 11 1 3-3 5-1 9 5 3 12-3 19-3 5 0 12 3 12 7-1 9-24 3-32 3-5-7-19-3-28-8-3-1-4-6-7-7-8-2-17 2-19-6-1-6 4-12 4-16v-15l1-7c0-13-10-25-16-35-7-11-15-21-16-35 0-12 5-24 2-40-10-3-20 7-31 6 6-9 19-12 33-14v-11c-4 0-12-1-15 1s-3 7-6 10-13 5-18 7c-7 2-14 6-21 4-6-2-5-10-14-7-1 5 4 5 4 10 0 6-7 10-10 18l-1 8c-3 5-10 7-11 12-2 8 3 13 0 22-3 1-4-1-7-1-3-3-1-9-2-14 0-4-3-7-3-10 0-8 7-15 8-23 2-13-10-32 1-38 7-4 19 1 26-1 11-3 17-19 32-20 4 0 7 2 12 1-1-4-6-5-9-9-4-5-7-12-12-17-17-14-41-14-55-33-12-16-15-41-11-72-3-4-10-7-13-12-5-9-3-22-4-35-1-25-14-57-4-77-23 0-32-14-36-34v-12c2-2 5-2 7 0-2 19 19 37 37 30 7-3 11-12 16-19s12-13 13-22c0-5-4-22 2-23 4 0 6 11 6 16 0 18-8 32-18 45-9 12-21 24-21 42 0 15 9 22 19 28 1-5 4-8 7-11-13-5-18-18-15-32 5-20 37-29 34-58 6-6 25-10 24-21l-4-9c-2-7-2-14-2-23 8-2 18 0 19-8 2-10-9-18-15-23-10 2-15-5-20-7 3 3 4 9 10 11l7 1c7 3 10 9 9 17-2 1-5 0-6-1-2 10-17 5-19-1-16-1-24-10-24-27 1-2 5 0 6-2 1-5-3-8-2-11 10 0 15 3 21 6-1-5-5-13-2-19 5-1 10 3 15 6l15 7c2 2 5 8 9 9s9-2 13-2c12 0 20 4 31 8 7 3 25 7 23 13-2 8-17 1-21 6-2 5 0 14-3 18 5-1 9 2 12 4-1 4-1 8-4 9h-8c-5-1-8-5-10-6-7 6 4 13 4 21-18-1-8 22 6 19 0 4 0 8-3 9-11 2-19-6-27-3-5 3-4 11-9 15-27-1-44 8-51 27 8 4 15 8 15 18 3 26-29 39-28 67 0 12 5 25 17 30 1-3 2-6 5-7l-7-10c-13-28 24-47 23-76 0-15-7-17-10-29l13 4c14 8 6 35 19 45l20-4 4-22c4 3 2 9 4 13s7 6 10 9c9-1 15-7 15-16 1-6-4-13-2-19 5-1 6 4 10 6 3 2 7 3 10 6 4 4 4 10 7 15 8 2 13 6 19 9 3-6 6-11 11-16-1-4-6-4-6-9 4-2 8 1 11 1 17-17 38-35 66-43 27-9 67-11 95-3 3-4 3-10 4-15 0-5 2-9 3-14 4-9 10-18 11-27l-1-6c1-20 13-32 17-50 2-11-1-22 0-36-2-2-8-1-9-4 0-33 12-55 17-83M232 264c0-8-6-11-12-14 0 9 5 13 12 14Zm156 134c-25 25-45 61-44 110 2 45 25 78 51 101a154 154 0 0 0 217-7 140 140 0 0 0 26-168c-25-47-72-87-145-83-50 2-80 22-105 47m-181-1 9 19c4-3 6-6 8-10-3-7-3-16-9-21-2 4-6 7-8 12Zm42 111-1-1c-3-19 14-29 16-46 1-10-3-20-12-24-1 1-3 1-3 3 1 4 4 6 4 9 6 22-21 32-15 54l11 5Zm-17-52c1 7 3 12 7 16l6-11c-3-3-2-9-6-10-3 1-6 3-7 5Zm77 120-8-18c-22-7-35-22-47-39-14-1-28-6-39-9l-2 1c4 7 12 10 19 13 6 4 14 8 18 14 5 7 5 16 11 23l6 5c5 5 5 14 10 19 0-3 3-3 5-4 4 2 2 9 7 9 2-3-1-5-1-8 6-5 7 2 10 5l7 4c3 2 4 5 6 4 6-5 0-13-2-19m394-21c21 0 31 12 45 19l-1-20c-12-5-33-4-44 1Zm48 40c-7-8-34-19-39-1 4 4 12 1 17 2 9 1 17 11 22 16 1 2 4 6 5 5-2-7-4-13-5-22Zm18 64 5-4-11-18c1 9 2 17 6 22Z"/>
</svg>
